<svg width="15" height="24" viewBox="0 0 15 24" fill="none" xmlns="http://www.w3.org/2000/svg">
<path d="M8.97309 8.28097V12.5585C9.53568 12.3725 9.98941 11.924 10.5067 11.6511C11.8652 10.9336 13.388 10.4609 14.956 10.5588V13.3916L14.7667 13.5418C12.2864 13.5058 9.94884 15.2856 9.26047 17.5569C9.18136 17.818 8.97309 18.6191 8.97309 18.8352V24H5.86666C5.40346 21.2887 2.88599 19.1159 0 19.2243V16.225C1.54645 16.1878 3.10779 16.5913 4.44935 17.316C4.9734 17.5993 5.41902 18.0739 5.98161 18.2234V15.7249C5.98161 15.6172 5.85246 14.9474 5.81662 14.7737C5.27431 12.1662 2.77375 10.1449 0 10.2259V7.22659C1.42812 7.207 2.95429 7.58371 4.2208 8.20654C4.7293 8.45593 5.25605 8.97627 5.63675 9.16951C5.75508 9.22958 5.85246 9.23872 5.98161 9.22631L5.87874 7.19851C5.87874 7.19851 6.30483 6.14479 6.39003 5.89866C7.48749 2.70354 11.0152 0.0267883 14.5598 2.08456e-05C14.689 -0.00128489 14.956 0.0587787 14.956 0.172377V3.00516C12.7976 3.02932 10.6541 4.19533 9.67836 6.07363C9.43155 6.54957 8.97309 7.78544 8.97309 8.28097Z" fill="white"/>
<path d="M1.30438 4.85473C-1.10558 2.79298 2.20845 -0.900282 4.70496 1.294C7.05202 3.3564 3.75152 6.94912 1.30438 4.85473Z" fill="white"/>
<path d="M12.6333 5.25167C15.5518 5.09825 15.6944 9.25439 12.9403 9.4509C10.0854 9.65394 9.76829 5.40248 12.6333 5.25167Z" fill="white"/>
<path d="M11.1998 19.6291C9.28955 17.6555 12.258 14.8455 14.2717 16.6076C16.4714 18.5336 13.1716 21.666 11.1998 19.6291Z" fill="white"/>
<path d="M0.844569 12.3751C2.66218 10.7984 5.20872 13.5568 3.39517 15.1152C1.5282 16.7199 -1.02916 14.0001 0.844569 12.3751Z" fill="white"/>
</svg>
